<mxfile host="65bd71144e">
    <diagram id="INSRnCzCVwdk0YZhZegI" name="Page-1">
        <mxGraphModel dx="2028" dy="784" grid="1" gridSize="10" guides="1" tooltips="1" connect="1" arrows="1" fold="1" page="1" pageScale="1" pageWidth="850" pageHeight="1100" math="0" shadow="0">
            <root>
                <mxCell id="0"/>
                <mxCell id="1" parent="0"/>
                <mxCell id="9" style="edgeStyle=none;html=1;entryX=0;entryY=0.25;entryDx=0;entryDy=0;" edge="1" parent="1" source="8" target="7">
                    <mxGeometry relative="1" as="geometry">
                        <Array as="points">
                            <mxPoint x="410" y="213"/>
                        </Array>
                    </mxGeometry>
                </mxCell>
                <mxCell id="10" value="RBAC" style="edgeLabel;html=1;align=center;verticalAlign=middle;resizable=0;points=[];" vertex="1" connectable="0" parent="9">
                    <mxGeometry x="0.2788" relative="1" as="geometry">
                        <mxPoint as="offset"/>
                    </mxGeometry>
                </mxCell>
                <mxCell id="11" style="edgeStyle=none;html=1;entryX=0;entryY=0.5;entryDx=0;entryDy=0;" edge="1" parent="1" source="8" target="7">
                    <mxGeometry relative="1" as="geometry"/>
                </mxCell>
                <mxCell id="12" value="Docker Image Push" style="edgeLabel;html=1;align=center;verticalAlign=middle;resizable=0;points=[];" vertex="1" connectable="0" parent="11">
                    <mxGeometry x="0.2818" y="-2" relative="1" as="geometry">
                        <mxPoint as="offset"/>
                    </mxGeometry>
                </mxCell>
                <mxCell id="8" value="" style="rounded=0;whiteSpace=wrap;html=1;" vertex="1" parent="1">
                    <mxGeometry x="30" y="80" width="179" height="670" as="geometry"/>
                </mxCell>
                <mxCell id="13" style="edgeStyle=none;html=1;exitX=0;exitY=0.75;exitDx=0;exitDy=0;" edge="1" parent="1" source="7">
                    <mxGeometry relative="1" as="geometry">
                        <mxPoint x="210" y="470" as="targetPoint"/>
                    </mxGeometry>
                </mxCell>
                <mxCell id="15" value="Docker Pull" style="edgeLabel;html=1;align=center;verticalAlign=middle;resizable=0;points=[];" vertex="1" connectable="0" parent="13">
                    <mxGeometry x="0.0925" y="3" relative="1" as="geometry">
                        <mxPoint as="offset"/>
                    </mxGeometry>
                </mxCell>
                <mxCell id="7" value="" style="rounded=0;whiteSpace=wrap;html=1;" vertex="1" parent="1">
                    <mxGeometry x="620" y="80" width="179" height="680" as="geometry"/>
                </mxCell>
                <mxCell id="2" value="Azure DevOps" style="aspect=fixed;html=1;points=[];align=center;image;fontSize=12;image=img/lib/azure2/devops/Azure_DevOps.svg;" parent="1" vertex="1">
                    <mxGeometry x="87.5" y="90" width="64" height="64" as="geometry"/>
                </mxCell>
                <mxCell id="4" value="" style="sketch=0;aspect=fixed;html=1;points=[];align=center;image;fontSize=12;image=img/lib/mscae/Docker.svg;" vertex="1" parent="1">
                    <mxGeometry x="670" y="420" width="36.59" height="30" as="geometry"/>
                </mxCell>
                <mxCell id="5" value="Azure AD" style="aspect=fixed;html=1;points=[];align=center;image;fontSize=12;image=img/lib/azure2/identity/Azure_AD_B2C.svg;" vertex="1" parent="1">
                    <mxGeometry x="690" y="170" width="69" height="64" as="geometry"/>
                </mxCell>
                <mxCell id="6" value="App" style="aspect=fixed;html=1;points=[];align=center;image;fontSize=12;image=img/lib/azure2/intune/Azure_AD_Roles_and_Administrators.svg;" vertex="1" parent="1">
                    <mxGeometry x="650" y="230" width="40" height="40" as="geometry"/>
                </mxCell>
                <mxCell id="14" value="Azure" style="text;html=1;strokeColor=none;fillColor=none;align=center;verticalAlign=middle;whiteSpace=wrap;rounded=0;" vertex="1" parent="1">
                    <mxGeometry x="620" y="80" width="60" height="30" as="geometry"/>
                </mxCell>
                <mxCell id="16" value="Container registry" style="aspect=fixed;html=1;points=[];align=center;image;fontSize=12;image=img/lib/azure2/containers/Container_Registries.svg;" vertex="1" parent="1">
                    <mxGeometry x="680" y="330" width="68" height="61" as="geometry"/>
                </mxCell>
                <mxCell id="17" value="Azure Container Apps" style="aspect=fixed;html=1;points=[];align=center;image;fontSize=12;image=img/lib/azure2/other/Worker_Container_App.svg;" vertex="1" parent="1">
                    <mxGeometry x="670" y="500" width="68" height="66" as="geometry"/>
                </mxCell>
                <mxCell id="18" value="" style="shape=image;verticalLabelPosition=bottom;labelBackgroundColor=default;verticalAlign=top;aspect=fixed;imageAspect=0;image=https://keda.sh/img/logos/keda-horizontal-color.png;" vertex="1" parent="1">
                    <mxGeometry x="657.27" y="596" width="113.46" height="48" as="geometry"/>
                </mxCell>
                <mxCell id="20" style="edgeStyle=none;html=1;" edge="1" parent="1" source="19" target="17">
                    <mxGeometry relative="1" as="geometry"/>
                </mxCell>
                <mxCell id="19" value="Agent Pool" style="shadow=0;dashed=0;html=1;strokeColor=none;fillColor=#4495D1;labelPosition=center;verticalLabelPosition=bottom;verticalAlign=top;align=center;outlineConnect=0;shape=mxgraph.veeam.2d.agent;pointerEvents=1;" vertex="1" parent="1">
                    <mxGeometry x="97.1" y="566" width="44.8" height="44.8" as="geometry"/>
                </mxCell>
                <mxCell id="21" value="" style="aspect=fixed;html=1;points=[];align=center;image;fontSize=12;image=img/lib/azure2/containers/Container_Instances.svg;" vertex="1" parent="1">
                    <mxGeometry x="40.72" y="644" width="46.38" height="50" as="geometry"/>
                </mxCell>
                <mxCell id="24" value="&lt;font style=&quot;font-size: 24px;&quot;&gt;High Level Architecture&lt;/font&gt;" style="text;html=1;strokeColor=none;fillColor=none;align=left;verticalAlign=middle;whiteSpace=wrap;rounded=0;" vertex="1" parent="1">
                    <mxGeometry x="30" y="20" width="393" height="30" as="geometry"/>
                </mxCell>
                <mxCell id="25" value="1" style="ellipse;whiteSpace=wrap;html=1;fontSize=24;" vertex="1" parent="1">
                    <mxGeometry x="405" y="220" width="40" height="30" as="geometry"/>
                </mxCell>
                <mxCell id="28" value="2" style="ellipse;whiteSpace=wrap;html=1;fontSize=24;" vertex="1" parent="1">
                    <mxGeometry x="480" y="440" width="40" height="30" as="geometry"/>
                </mxCell>
                <mxCell id="30" style="edgeStyle=none;html=1;fontSize=24;" edge="1" parent="1" source="29" target="19">
                    <mxGeometry relative="1" as="geometry"/>
                </mxCell>
                <mxCell id="29" value="Pipelines" style="sketch=0;aspect=fixed;html=1;points=[];align=center;image;fontSize=12;image=img/lib/mscae/Azure_Pipelines.svg;" vertex="1" parent="1">
                    <mxGeometry x="97.1" y="330" width="50" height="50" as="geometry"/>
                </mxCell>
                <mxCell id="34" style="edgeStyle=none;html=1;fontSize=24;" edge="1" parent="1" source="31" target="19">
                    <mxGeometry relative="1" as="geometry"/>
                </mxCell>
                <mxCell id="31" value="Pipelines" style="sketch=0;aspect=fixed;html=1;points=[];align=center;image;fontSize=12;image=img/lib/mscae/Azure_Pipelines.svg;" vertex="1" parent="1">
                    <mxGeometry x="152.62" y="330" width="50" height="50" as="geometry"/>
                </mxCell>
                <mxCell id="33" style="edgeStyle=none;html=1;fontSize=24;" edge="1" parent="1" source="32" target="19">
                    <mxGeometry relative="1" as="geometry"/>
                </mxCell>
                <mxCell id="32" value="Pipelines" style="sketch=0;aspect=fixed;html=1;points=[];align=center;image;fontSize=12;image=img/lib/mscae/Azure_Pipelines.svg;" vertex="1" parent="1">
                    <mxGeometry x="37.1" y="330" width="50" height="50" as="geometry"/>
                </mxCell>
                <mxCell id="35" value="Min 1 - Max 10" style="text;html=1;strokeColor=none;fillColor=none;align=center;verticalAlign=middle;whiteSpace=wrap;rounded=0;" vertex="1" parent="1">
                    <mxGeometry x="50" y="710" width="130" height="30" as="geometry"/>
                </mxCell>
                <mxCell id="36" value="3" style="ellipse;whiteSpace=wrap;html=1;fontSize=24;" vertex="1" parent="1">
                    <mxGeometry x="460" y="560" width="40" height="30" as="geometry"/>
                </mxCell>
                <mxCell id="37" value="&lt;font style=&quot;&quot;&gt;&lt;b style=&quot;&quot;&gt;&lt;font style=&quot;font-size: 14px;&quot;&gt;&lt;font style=&quot;&quot;&gt;&lt;font style=&quot;&quot;&gt;&lt;font style=&quot;&quot;&gt;1) Configurar um app no AD e atribuir role na subscription. No DevOps, criar a service connection.&lt;br&gt;2) Enviar imagem do container para ACR para ser utilizada pelo Container apps&lt;br&gt;&lt;/font&gt;3) O agent pool do AzDevOps irá comunicar com a trigger do KEDA no Container Apps, a escala de novos containers (agents) será feita mediante serviço de escala horizontal do Container Apps via KEDA.&lt;br&gt;&lt;/font&gt;&lt;br&gt;Pontos positivos:&lt;br&gt;&lt;/font&gt;&lt;br&gt;- Escala sob demanda&lt;br&gt;- Gerenciamento PaaS&lt;br&gt;&lt;br&gt;Pontos negativos:&lt;br&gt;&lt;br&gt;- Pouca administração a nível de escala do KEDA&lt;br&gt;&lt;/font&gt;&lt;font style=&quot;font-size: 14px;&quot;&gt;- AzDevOps não possibilita não ter um agent, sempre precisa ter 1 no status &quot;idle&quot;&lt;/font&gt;&lt;br&gt;&lt;/b&gt;&lt;/font&gt;" style="text;html=1;strokeColor=none;fillColor=none;align=left;verticalAlign=middle;whiteSpace=wrap;rounded=0;" vertex="1" parent="1">
                    <mxGeometry x="30" y="850" width="780" height="70" as="geometry"/>
                </mxCell>
                <mxCell id="40" value="" style="aspect=fixed;html=1;points=[];align=center;image;fontSize=12;image=img/lib/azure2/containers/Container_Instances.svg;" vertex="1" parent="1">
                    <mxGeometry x="98.91" y="644" width="46.38" height="50" as="geometry"/>
                </mxCell>
            </root>
        </mxGraphModel>
    </diagram>
</mxfile>